<svg xmlns="http://www.w3.org/2000/svg" version="1.1" width="1500px" height="1500px" shape-rendering="geometricPrecision" SkuId="IPSE" FullProductHorizontalInches="3.6" FullProductVerticalInches="5.7">
  <style>.dottedLine { stroke: black; stroke-width: 1; stroke-dasharray: 1,2; vector-effect:non-scaling-stroke; }.thickLine { stroke: black; stroke-width: 2; vector-effect:non-scaling-stroke;}.fillSemiWhite { fill: #FFF; fill-opacity:0.85; }.fillTransparent { fill: transparent; }</style>
  <path fill-rule="evenodd" d="M280,1500v-1500 h939 v1500 zM0,0h1500 v1500 h-1500 z" class="fillSemiWhite" fill="#FFF" fill-opacity="0.85" />
  <path d="M280,1500v-1500 h939 v1500 z" class="dottedLine fillTransparent" stroke="black" stroke-width="1" stroke-dasharray="1,2" vector-effect="non-scaling-stroke" fill="transparent" />
  <g transform="translate(0.000000,1500.000000) scale(0.100000,-0.100000)" fill="#000000" stroke="none">
    <path d="M5180 14589 c-195 -9 -328 -37 -467 -96 -118 -52 -201 -112 -301 -218 -120 -128 -194 -287 -239 -510 -17 -86 -18 -363 -21 -6105 -2 -3894 1 -6080 7 -6200 6 -102 18 -219 26 -260 54 -246 156 -419 332 -561 86 -69 152 -104 277 -148 197 -70 -1 -64 2596 -68 1625 -3 2390 -1 2491 7 306 23 526 120 701 309 146 158 224 359 249 636 6 71 9 2295 7 6220 l-3 6110 -23 100 c-103 444 -363 688 -822 771 -88 16 -270 18 -2370 19 -1251 2 -2349 -1 -2440 -6z m1310 -192 c130 -50 214 -109 297 -209 102 -122 147 -254 146 -428 0 -97 -4 -128 -27 -197 -66 -204 -246 -379 -451 -439 -54 -16 -122 -18 -660 -21 -658 -5 -719 -1 -847 49 -180 69 -340 251 -394 449 -28 102 -24 263 9 365 46 138 145 270 270 356 69 47 106 63 201 89 66 17 114 18 726 16 l655 -2 75 -28z" class="thickLine fillTransparent" stroke="black" stroke-width="2" vector-effect="non-scaling-stroke" fill="transparent" />
  </g>
</svg>