<svg version="1.1" xmlns="http://www.w3.org/2000/svg" x="0px" y="0px" style="enable-background:new 0 0 1500 1500;" xml:space="preserve" width="1500" height="1500">
  <style type="text/css">
  .st0 { display: none }
  .st1 { opacity: 0.3 }
  .st2 { fill: none }
  .st4 { fill: none; stroke: rgb(0, 0, 0); stroke-miterlimit: 10 }
</style>
  <g id="Layer_1" class="st0" display="none" />
  <g id="Layer_2">
    <g>
      <g>
        <path class="st1" d="M676.23,126.95H556.35c-52.65,0-108.7,42.69-108.7,95.34v121.63c0,52.65,42.68,95.34,95.34,95.34h119.88 c52.65,0,95.34-42.69,95.34-95.34V222.29C758.21,169.63,728.88,126.95,676.23,126.95z" opacity="0.3" />
        <path class="st1" d="M301.88,0v1500h896.23V0H301.88z M1075.88,576.92l-5.56,3.83v96.51l5.56,3.83v597.66 c0,63.5-51.48,114.98-114.98,114.98H816.03l-9.7-11.95H692.66l-9.7,11.95H533.87c-63.5,0-114.98-51.48-114.98-114.98V667.88 l7.7-26.21V498.26l-7.7-26.21V219.62c0-63.5,51.48-114.98,114.98-114.98H960.9c63.5,0,114.98,51.48,114.98,114.98v126.91 l-5.56,3.62v91.31l5.56,3.62l8.03,5.24l-8.03,5.54l-5.56,3.83v96.51l5.56,3.83l12.25,8.44L1075.88,576.92z" opacity="0.3" />
      </g>
      <g>
        <polygon class="st2" points="1088.13,568.48 1075.88,560.03 1075.88,576.92    " fill="none" />
        <polygon class="st2" points="1083.92,450.32 1075.88,445.08 1075.88,455.86    " fill="none" />
        <path class="st4" d="M1070.32,580.75l5.56-3.83v-16.89l-5.56-3.83v-96.51l5.56-3.83v-10.78l-5.56-3.62v-91.31l5.56-3.62V219.62 c0-63.5-51.48-114.98-114.98-114.98H533.87c-63.5,0-114.98,51.48-114.98,114.98v252.43l7.7,26.21v143.41l-7.7,26.21v610.87 c0,63.5,51.48,114.98,114.98,114.98h149.09l9.7-11.95h113.67l9.7,11.95H960.9c63.5,0,114.98-51.48,114.98-114.98V681.09 l-5.56-3.83V580.75z" fill="none" stroke="rgb(0, 0, 0)" stroke-miterlimit="10" />
      </g>
      <path class="st4" d="M676.23,126.95H556.35c-52.65,0-108.7,42.69-108.7,95.34v121.63c0,52.65,42.68,95.34,95.34,95.34h119.88 c52.65,0,95.34-42.69,95.34-95.34V222.29C758.21,169.63,728.88,126.95,676.23,126.95z" fill="none" stroke="rgb(0, 0, 0)" stroke-miterlimit="10" />
    </g>
  </g>
</svg>