<svg version="1.1" xmlns="http://www.w3.org/2000/svg" x="0px" y="0px" style="enable-background:new 0 0 1500 1500;" xml:space="preserve" width="1500" height="1500">
  <style type="text/css">
  .st0 { display: none }
  .st1 { opacity: 0.3 }
  .st2 { fill: none }
  .st4 { fill: none; stroke: rgb(0, 0, 0); stroke-miterlimit: 10 }
</style>
  <g id="Layer_1" class="st0" display="none" />
  <g id="Layer_2">
    <g>
      <g>
        <path class="st1" d="M712.49,138.11H573.76c-63.01,0-114.08,51.08-114.08,114.08v150.35c0,63.01,51.08,114.08,114.08,114.08 h138.74c63.01,0,114.08-51.08,114.08-114.08V252.2C826.58,189.19,775.5,138.11,712.49,138.11z" opacity="0.3" />
        <path class="st1" d="M302.3,0v1500h895.39V0H302.3z M1077.72,566.66l-6.33,4.37v96.59l6.33,4.37v611.92 c0,63.57-51.54,115.11-115.11,115.11h-145.5l-9.94-12.25H693.41l-9.94,12.25h-146.4c-63.57,0-115.11-51.54-115.11-115.11V703.52 l8.35-28.44V531.55l-8.35-28.44V219.83c0-63.57,51.54-115.11,115.11-115.11h425.55c63.57,0,115.11,51.54,115.11,115.11v116.28 l-6.33,4.13v91.38l6.33,4.13l7.27,4.74l-7.27,5.01l-6.33,4.37v96.59l6.33,4.37l11.49,7.92L1077.72,566.66z" opacity="0.3" />
      </g>
      <g>
        <polygon class="st2" points="1084.99,440.49 1077.72,435.75 1077.72,445.5    " fill="none" />
        <polygon class="st2" points="1089.21,558.74 1077.72,550.83 1077.72,566.66    " fill="none" />
        <path class="st4" d="M1071.38,571.03l6.33-4.37v-15.84l-6.33-4.37v-96.59l6.33-4.37v-9.75l-6.33-4.13v-91.38l6.33-4.13V219.83 c0-63.57-51.54-115.11-115.11-115.11H537.06c-63.57,0-115.11,51.54-115.11,115.11V503.1l8.35,28.44v143.53l-8.35,28.44v580.38 c0,63.57,51.54,115.11,115.11,115.11h146.4l9.94-12.25h113.76l9.94,12.25h145.5c63.57,0,115.11-51.54,115.11-115.11V671.99 l-6.33-4.37V571.03z" fill="none" stroke="rgb(0, 0, 0)" stroke-miterlimit="10" />
      </g>
      <path class="st4" d="M712.49,138.11H573.76c-63.01,0-114.08,51.08-114.08,114.08v150.35c0,63.01,51.08,114.08,114.08,114.08 h138.74c63.01,0,114.08-51.08,114.08-114.08V252.2C826.58,189.19,775.5,138.11,712.49,138.11z" fill="none" stroke="rgb(0, 0, 0)" stroke-miterlimit="10" />
    </g>
  </g>
</svg>