<svg version="1.1" xmlns="http://www.w3.org/2000/svg" x="0px" y="0px" style="enable-background:new 0 0 1500 1500;" xml:space="preserve" width="1500" height="1500">
  <style type="text/css">
  .st0 { display: none }
  .st1 { opacity: 1; fill: white;}
  .st2 { fill: none }
  .st4 { fill: red; stroke: rgb(0, 0, 0); stroke-miterlimit: 10;}
</style>
  <g id="Layer_1" class="st0" display="none" />
  <g id="Layer_2">
    <g>
      <g>
        <path class="st1" d="M690.29,127.43H561.65c-58.76,0-106.39,47.63-106.39,106.39V374.8c0,58.76,47.63,106.39,106.39,106.39 h128.64c58.76,0,106.39-47.63,106.39-106.39V233.82C796.68,175.06,749.05,127.43,690.29,127.43z" opacity="0.3" />
        <path class="st1" d="M296.14,0v1500h907.72V0H296.14z M1080.23,527.81l-8.52,5.88v89.67l8.52,5.88v657.38 c0,64.11-51.97,116.08-116.08,116.08H809.63l-7.05-8.69H696.97l-7.06,8.69H535.14c-64.11,0-116.08-51.97-116.08-116.08V640.11 l7.75-26.41V480.45l-7.75-26.41V213.3c0-64.11,51.97-116.08,116.08-116.08h429.01c64.11,0,116.08,51.97,116.08,116.08v100.56 l-8.52,5.56v84.84l8.52,5.56l4.11,2.68l-4.11,2.83l-8.52,5.88v89.67l8.52,5.88l8.02,5.53L1080.23,527.81z" opacity="0.3" />
      </g>
      <g>
        <polygon class="st2" points="1088.25,522.28 1080.23,516.75 1080.23,527.81    " fill="none" />
        <polygon class="st2" points="1084.34,412.5 1080.23,409.82 1080.23,415.33    " fill="none" />
        <path class="st4" d="M1071.71,533.68l8.52-5.88v-11.06l-8.52-5.88V421.2l8.52-5.88v-5.51l-8.52-5.56v-84.84l8.52-5.56V213.3 c0-64.11-51.97-116.08-116.08-116.08H535.14c-64.11,0-116.08,51.97-116.08,116.08v240.74l7.75,26.41V613.7l-7.75,26.41v646.51 c0,64.11,51.97,116.08,116.08,116.08h154.77l7.06-8.69h105.61l7.05,8.69h154.52c64.11,0,116.08-51.97,116.08-116.08V629.23 l-8.52-5.88V533.68z" fill="none" stroke="rgb(0, 0, 0)" stroke-miterlimit="10" />
      </g>
      <path class="st4" d="M690.29,127.43H561.65c-58.76,0-106.39,47.63-106.39,106.39V374.8c0,58.76,47.63,106.39,106.39,106.39h128.64 c58.76,0,106.39-47.63,106.39-106.39V233.82C796.68,175.06,749.05,127.43,690.29,127.43z" fill="none" stroke="rgb(0, 0, 0)" stroke-miterlimit="10" />
    </g>
  </g>
</svg>