<svg version="1.1" xmlns="http://www.w3.org/2000/svg" x="0px" y="0px" style="enable-background:new 0 0 1500 1500;" xml:space="preserve" width="1500" height="1500">
  <style type="text/css">
  .st0 { display: none }
  .st1 { opacity: 0.3 }
  .st2 { fill: none }
  .st4 { fill: none; stroke: rgb(0, 0, 0); stroke-miterlimit: 10 }
</style>
  <g id="Layer_1" class="st0" display="none" />
  <g id="Layer_2">
    <g>
      <g>
        <path class="st1" d="M645.61,120.31H534.24c-48.92,0-88.57,39.65-88.57,88.57v113c0,48.92,39.65,88.57,88.57,88.57h111.37 c48.92,0,88.57-39.65,88.57-88.57v-113C734.18,159.96,694.53,120.31,645.61,120.31z" opacity="0.3" />
        <path class="st1" d="M296.04,0v1500h907.91V0H296.04z M1080.02,534.83l-8.52,5.87v89.66l8.52,5.87v650.18 c0,64.1-51.96,116.06-116.06,116.06h-154.5l-7.05-8.69h-105.6l-7.05,8.69H535.01c-64.1,0-116.06-51.96-116.06-116.06V625.81 l7.75-26.4V466.18l-7.75-26.4v-226.5c0-64.1,51.96-116.06,116.06-116.06h428.95c64.1,0,116.06,51.96,116.06,116.06v107.65 l-8.52,5.56v84.82l8.52,5.56l4.1,2.68l-4.1,2.83l-8.52,5.87v89.66l8.52,5.87l8.02,5.53L1080.02,534.83z" opacity="0.3" />
      </g>
      <g>
        <polygon class="st2" points="1088.04,529.31 1080.02,523.78 1080.02,534.83    " fill="none" />
        <polygon class="st2" points="1080.02,422.37 1084.12,419.54 1080.02,416.86    " fill="none" />
        <path class="st4" d="M1071.5,540.71l8.52-5.87v-11.06l-8.52-5.87v-89.66l8.52-5.87v-5.51l-8.52-5.56v-84.82l8.52-5.56V213.27 c0-64.1-51.96-116.06-116.06-116.06H535.01c-64.1,0-116.06,51.96-116.06,116.06v226.5l7.75,26.4V599.4l-7.75,26.4v660.62 c0,64.1,51.96,116.06,116.06,116.06h154.75l7.05-8.69h105.6l7.05,8.69h154.5c64.1,0,116.06-51.96,116.06-116.06V636.24 l-8.52-5.87V540.71z" fill="none" stroke="rgb(0, 0, 0)" stroke-miterlimit="10" />
      </g>
      <path class="st4" d="M645.61,410.45H534.24c-48.92,0-88.57-39.65-88.57-88.57v-113c0-48.92,39.65-88.57,88.57-88.57h111.37 c48.92,0,88.57,39.65,88.57,88.57v113C734.18,370.79,694.53,410.45,645.61,410.45z" fill="none" stroke="rgb(0, 0, 0)" stroke-miterlimit="10" />
    </g>
  </g>
</svg>